<svg width="42" height="36" viewBox="0 0 42 36" fill="none" xmlns="http://www.w3.org/2000/svg">
<path d="M21.4766 21.7578C21.4766 26.1641 20.5391 29.5547 18.6641 31.9297C16.8047 34.3047 14.2109 35.4922 10.8828 35.4922C7.57031 35.4922 4.96875 34.3047 3.07812 31.9297C1.20312 29.5391 0.265625 26.1484 0.265625 21.7578V14.1406C0.265625 9.75 1.19531 6.35938 3.05469 3.96875C4.92969 1.57812 7.52344 0.382812 10.8359 0.382812C14.1641 0.382812 16.7656 1.57812 18.6406 3.96875C20.5312 6.35938 21.4766 9.75 21.4766 14.1406V21.7578ZM18.6641 13.6719C18.6641 10.1719 17.9922 7.48438 16.6484 5.60938C15.3203 3.71875 13.3828 2.77344 10.8359 2.77344C8.30469 2.77344 6.375 3.71875 5.04688 5.60938C3.71875 7.5 3.05469 10.1875 3.05469 13.6719V22.1797C3.05469 25.6484 3.72656 28.3438 5.07031 30.2656C6.42969 32.1719 8.36719 33.125 10.8828 33.125C13.4141 33.125 15.3438 32.1719 16.6719 30.2656C18 28.3594 18.6641 25.6641 18.6641 22.1797V13.6719ZM26.7422 32.9375L32.8594 32.6328V3.85156L26.1328 4.8125V2.84375L35.6719 0.78125V32.6328L41.7891 32.9375V35H26.7422V32.9375Z" fill="#0F2137"/>
</svg>
