<svg width="49" height="36" viewBox="0 0 49 36" fill="none" xmlns="http://www.w3.org/2000/svg">
<path d="M22.1484 21.7578C22.1484 26.1641 21.2109 29.5547 19.3359 31.9297C17.4766 34.3047 14.8828 35.4922 11.5547 35.4922C8.24219 35.4922 5.64062 34.3047 3.75 31.9297C1.875 29.5391 0.9375 26.1484 0.9375 21.7578V14.1406C0.9375 9.75 1.86719 6.35938 3.72656 3.96875C5.60156 1.57812 8.19531 0.382812 11.5078 0.382812C14.8359 0.382812 17.4375 1.57812 19.3125 3.96875C21.2031 6.35938 22.1484 9.75 22.1484 14.1406V21.7578ZM19.3359 13.6719C19.3359 10.1719 18.6641 7.48438 17.3203 5.60938C15.9922 3.71875 14.0547 2.77344 11.5078 2.77344C8.97656 2.77344 7.04688 3.71875 5.71875 5.60938C4.39062 7.5 3.72656 10.1875 3.72656 13.6719V22.1797C3.72656 25.6484 4.39844 28.3438 5.74219 30.2656C7.10156 32.1719 9.03906 33.125 11.5547 33.125C14.0859 33.125 16.0156 32.1719 17.3438 30.2656C18.6719 28.3594 19.3359 25.6641 19.3359 22.1797V13.6719ZM27.1094 35V32.8438L38.2891 20.1641C40.3672 17.8203 41.8281 15.8672 42.6719 14.3047C43.5312 12.7422 43.9609 11.2422 43.9609 9.80469C43.9609 7.69531 43.3594 6 42.1562 4.71875C40.9531 3.42188 39.2656 2.77344 37.0938 2.77344C34.5 2.77344 32.5312 3.49219 31.1875 4.92969C29.8438 6.36719 29.1719 8.28906 29.1719 10.6953H26.5703L26.5234 10.5547C26.4453 7.71094 27.3594 5.30469 29.2656 3.33594C31.1875 1.36719 33.7969 0.382812 37.0938 0.382812C40.0312 0.382812 42.375 1.22656 44.125 2.91406C45.8906 4.60156 46.7734 6.86719 46.7734 9.71094C46.7734 11.5859 46.1797 13.4922 44.9922 15.4297C43.8203 17.3516 42.1875 19.5 40.0938 21.875L30.6719 32.5156L30.7188 32.6328H45.6016L45.8359 27.8281H48.3203V35H27.1094Z" fill="#0F2137"/>
</svg>
