<svg width="52" height="52" viewBox="0 0 52 52" fill="none" xmlns="http://www.w3.org/2000/svg">
<path d="M44.5186 51.0415H7.56205C6.2577 51.0415 5.38814 50.172 5.38814 48.8676V24.9546H46.6925V48.8676C46.6925 50.172 45.8229 51.0415 44.5186 51.0415Z" stroke="#0F2137" stroke-width="1.5" stroke-miterlimit="10"/>
<path d="M48.8671 24.9547H3.2149C1.91055 24.9547 1.04099 24.0851 1.04099 22.7808V18.4329C1.04099 17.1286 1.91055 16.259 3.2149 16.259H48.8671C50.1714 16.259 51.041 17.1286 51.041 18.4329V22.7808C51.041 24.0851 50.1714 24.9547 48.8671 24.9547Z" stroke="#0F2137" stroke-width="1.5" stroke-miterlimit="10"/>
<path d="M29.3025 16.259H22.7808V51.0416H29.3025V16.259Z" stroke="#0F2137" stroke-width="1.5" stroke-miterlimit="10" stroke-linecap="round" stroke-linejoin="round"/>
<path d="M33.6504 16.259C37.7808 16.259 41.2591 12.7808 41.2591 8.65032C41.2591 4.51989 37.7808 1.04163 33.6504 1.04163C29.5199 1.04163 26.0417 4.51989 26.0417 8.65032V16.259H33.6504Z" stroke="#0F2137" stroke-width="1.5" stroke-miterlimit="10" stroke-linecap="round" stroke-linejoin="round"/>
<path d="M18.4323 16.259H26.041V8.65032C26.041 4.51989 22.5627 1.04163 18.4323 1.04163C14.3019 1.04163 10.8236 4.51989 10.8236 8.65032C10.8236 12.7808 14.3019 16.259 18.4323 16.259Z" stroke="#0F2137" stroke-width="1.5" stroke-miterlimit="10" stroke-linecap="round" stroke-linejoin="round"/>
</svg>
